<?xml version="1.0" encoding="UTF-8"?>
<!DOCTYPE svg PUBLIC "-//W3C//DTD SVG 1.1//EN" "http://www.w3.org/Graphics/SVG/1.1/DTD/svg11.dtd">
<svg xmlns="http://www.w3.org/2000/svg" version="1.1" width="200px" height="50px" style="shape-rendering:geometricPrecision; text-rendering:geometricPrecision; image-rendering:optimizeQuality; fill-rule:evenodd; clip-rule:evenodd" xmlns:xlink="http://www.w3.org/1999/xlink">
<g><path style="opacity:1" fill="#a90259" d="M -0.5,-0.5 C 66.1667,-0.5 132.833,-0.5 199.5,-0.5C 199.5,16.1667 199.5,32.8333 199.5,49.5C 132.833,49.5 66.1667,49.5 -0.5,49.5C -0.5,32.8333 -0.5,16.1667 -0.5,-0.5 Z"/></g>
<g><path style="opacity:1" fill="#fcdeee" d="M 103.5,8.5 C 103.5,8.83333 103.5,9.16667 103.5,9.5C 103.38,10.5862 102.713,11.2528 101.5,11.5C 99.1222,9.46952 99.7889,8.46952 103.5,8.5 Z"/></g>
<g><path style="opacity:1" fill="#fae6ef" d="M 75.5,10.5 C 76.8333,10.5 78.1667,10.5 79.5,10.5C 80.0531,16.7921 79.3864,22.7921 77.5,28.5C 76.8826,28.3893 76.3826,28.056 76,27.5C 75.5014,23.8484 75.3347,20.1817 75.5,16.5C 75.5,14.5 75.5,12.5 75.5,10.5 Z"/></g>
<g><path style="opacity:1" fill="#7d133f" d="M 168.5,21.5 C 167.073,19.8516 166.24,17.8516 166,15.5C 165.167,16.5 164.333,17.5 163.5,18.5C 162.717,16.7118 161.384,15.7118 159.5,15.5C 159.5,14.5 159.5,13.5 159.5,12.5C 154.235,11.5706 149.735,12.9039 146,16.5C 145.617,15.944 145.117,15.6107 144.5,15.5C 143.167,15.5 141.833,15.5 140.5,15.5C 136.441,15.4341 132.441,15.2674 128.5,15C 129.308,15.3076 129.975,15.8076 130.5,16.5C 127.018,20.316 126.685,24.4827 129.5,29C 128.576,30.8114 127.743,30.6447 127,28.5C 126.308,29.0253 125.808,29.6919 125.5,30.5C 126.728,32.321 128.394,33.321 130.5,33.5C 131.167,33.5 131.833,33.5 132.5,33.5C 131.322,34.9986 129.655,35.9986 127.5,36.5C 130.086,37.48 132.753,37.8134 135.5,37.5C 130.66,38.5622 125.66,39.0622 120.5,39C 117.914,36.506 117.914,34.006 120.5,31.5C 121.833,31.5 123.167,31.5 124.5,31.5C 124.5,27.8333 124.5,24.1667 124.5,20.5C 124.5,16.1667 124.5,11.8333 124.5,7.5C 125.268,8.26253 125.768,9.26253 126,10.5C 127.628,9.98976 129.461,9.98976 131.5,10.5C 143.065,8.09556 154.731,6.92889 166.5,7C 168.91,7.75793 169.91,9.4246 169.5,12C 168.893,15.1429 168.559,18.3095 168.5,21.5 Z"/></g>
<g><path style="opacity:1" fill="#f6e4f1" d="M 111.5,11.5 C 112.209,12.404 113.209,12.7373 114.5,12.5C 114.5,13.5 114.5,14.5 114.5,15.5C 113.5,15.5 112.5,15.5 111.5,15.5C 111.5,17.8333 111.5,20.1667 111.5,22.5C 112.5,22.5 113.5,22.5 114.5,22.5C 114.5,23.5 114.5,24.5 114.5,25.5C 112.208,25.7564 110.041,25.4231 108,24.5C 107.502,21.5184 107.335,18.5184 107.5,15.5C 106.167,15.5 104.833,15.5 103.5,15.5C 103.5,19.1667 103.5,22.8333 103.5,26.5C 102.167,26.5 100.833,26.5 99.5,26.5C 99.5,22.1667 99.5,17.8333 99.5,13.5C 102.167,13.5 104.833,13.5 107.5,13.5C 107.5,12.5 107.5,11.5 107.5,10.5C 107.917,9.87605 108.584,9.54272 109.5,9.5C 110.713,9.74716 111.38,10.4138 111.5,11.5 Z"/></g>
<g><path style="opacity:1" fill="#dc1861" d="M 118.5,3.5 C 121.608,3.37461 123.608,4.70794 124.5,7.5C 124.5,11.8333 124.5,16.1667 124.5,20.5C 122.797,19.3398 122.131,20.0065 122.5,22.5C 121.178,22.33 120.011,22.6634 119,23.5C 116.966,22.1379 114.799,21.1379 112.5,20.5C 112.5,19.5 112.5,18.5 112.5,17.5C 114.924,17.8076 117.257,17.4742 119.5,16.5C 118.965,14.7295 118.131,14.3961 117,15.5C 116.313,12.5744 114.48,11.2411 111.5,11.5C 111.38,10.4138 110.713,9.74716 109.5,9.5C 108.584,9.54272 107.917,9.87605 107.5,10.5C 106.849,11.0906 106.182,11.7573 105.5,12.5C 104.824,11.3984 104.158,10.3984 103.5,9.5C 103.5,9.16667 103.5,8.83333 103.5,8.5C 106.701,6.7397 110.367,5.90637 114.5,6C 115.858,5.06564 117.192,4.2323 118.5,3.5 Z"/></g>
<g><path style="opacity:1" fill="#f6b4d1" d="M 47.5,13.5 C 46.5,13.5 45.5,13.5 44.5,13.5C 44.5,19.1667 44.5,24.8333 44.5,30.5C 45.5,30.5 46.5,30.5 47.5,30.5C 46.4324,31.4345 45.099,31.7678 43.5,31.5C 43.5,25.5 43.5,19.5 43.5,13.5C 44.8333,12.1667 46.1667,12.1667 47.5,13.5 Z"/></g>
<g><path style="opacity:1" fill="#da1861" d="M 71.5,7.5 C 73.2191,8.02211 74.5525,9.02211 75.5,10.5C 75.5,12.5 75.5,14.5 75.5,16.5C 74.2976,17.4054 72.9643,17.4054 71.5,16.5C 68.8333,16.5 66.1667,16.5 63.5,16.5C 58.56,17.0983 53.56,17.0983 48.5,16.5C 48.7373,15.209 48.404,14.209 47.5,13.5C 46.1667,12.1667 44.8333,12.1667 43.5,13.5C 42.7639,18.7475 41.7639,24.0808 40.5,29.5C 39.4763,30.8532 38.143,31.5198 36.5,31.5C 36.7062,28.5049 36.0395,25.8383 34.5,23.5C 34.3347,19.8183 34.5014,16.1516 35,12.5C 36.8333,11.3333 38.6667,10.1667 40.5,9C 50.8586,8.73379 61.1919,8.23379 71.5,7.5 Z"/></g>
<g><path style="opacity:1" fill="#fea6d7" d="M 79.5,10.5 C 80.4896,16.31 80.8229,22.31 80.5,28.5C 79.5,28.5 78.5,28.5 77.5,28.5C 79.3864,22.7921 80.0531,16.7921 79.5,10.5 Z"/></g>
<g><path style="opacity:1" fill="#f4e9f0" d="M 140.5,15.5 C 141.833,15.5 143.167,15.5 144.5,15.5C 144.897,20.9586 144.397,26.2919 143,31.5C 139.757,33.2625 136.257,33.9292 132.5,33.5C 131.833,33.5 131.167,33.5 130.5,33.5C 130.414,32.5041 130.748,31.6708 131.5,31C 141.873,30.0121 141.707,28.8454 131,27.5C 128.636,23.5262 129.136,20.0262 132.5,17C 135.365,16.8171 138.031,16.3171 140.5,15.5 Z"/></g>
<g><path style="opacity:1" fill="#6b223b" d="M 135.5,18.5 C 136.833,18.5 138.167,18.5 139.5,18.5C 139.663,20.8568 139.497,23.1902 139,25.5C 135.958,26.9865 134.125,25.9865 133.5,22.5C 133.752,20.9271 134.418,19.5938 135.5,18.5 Z"/></g>
<g><path style="opacity:1" fill="#6a273f" d="M 140.5,15.5 C 138.031,16.3171 135.365,16.8171 132.5,17C 129.136,20.0262 128.636,23.5262 131,27.5C 141.707,28.8454 141.873,30.0121 131.5,31C 130.748,31.6708 130.414,32.5041 130.5,33.5C 128.394,33.321 126.728,32.321 125.5,30.5C 125.808,29.6919 126.308,29.0253 127,28.5C 127.743,30.6447 128.576,30.8114 129.5,29C 126.685,24.4827 127.018,20.316 130.5,16.5C 129.975,15.8076 129.308,15.3076 128.5,15C 132.441,15.2674 136.441,15.4341 140.5,15.5 Z"/></g>
<g><path style="opacity:1" fill="#d1276f" d="M 118.5,3.5 C 117.192,4.2323 115.858,5.06564 114.5,6C 110.367,5.90637 106.701,6.7397 103.5,8.5C 99.7889,8.46952 99.1222,9.46952 101.5,11.5C 102.713,11.2528 103.38,10.5862 103.5,9.5C 104.158,10.3984 104.824,11.3984 105.5,12.5C 106.182,11.7573 106.849,11.0906 107.5,10.5C 107.5,11.5 107.5,12.5 107.5,13.5C 104.833,13.5 102.167,13.5 99.5,13.5C 99.5,17.8333 99.5,22.1667 99.5,26.5C 100.833,26.5 102.167,26.5 103.5,26.5C 103.5,22.8333 103.5,19.1667 103.5,15.5C 104.833,15.5 106.167,15.5 107.5,15.5C 107.335,18.5184 107.502,21.5184 108,24.5C 110.041,25.4231 112.208,25.7564 114.5,25.5C 114.5,24.5 114.5,23.5 114.5,22.5C 113.5,22.5 112.5,22.5 111.5,22.5C 111.5,20.1667 111.5,17.8333 111.5,15.5C 112.5,15.5 113.5,15.5 114.5,15.5C 114.5,14.5 114.5,13.5 114.5,12.5C 113.209,12.7373 112.209,12.404 111.5,11.5C 114.48,11.2411 116.313,12.5744 117,15.5C 118.131,14.3961 118.965,14.7295 119.5,16.5C 117.257,17.4742 114.924,17.8076 112.5,17.5C 112.5,18.5 112.5,19.5 112.5,20.5C 114.799,21.1379 116.966,22.1379 119,23.5C 120.011,22.6634 121.178,22.33 122.5,22.5C 122.131,20.0065 122.797,19.3398 124.5,20.5C 124.5,24.1667 124.5,27.8333 124.5,31.5C 123.167,31.5 121.833,31.5 120.5,31.5C 110.878,32.8305 101.212,33.8305 91.5,34.5C 89.6672,34.4146 88.3339,33.7479 87.5,32.5C 87.5,30.8333 87.5,29.1667 87.5,27.5C 96.3695,27.3313 99.0362,23.3313 95.5,15.5C 91.5872,14.7986 87.5872,14.7986 83.5,15.5C 83.5,21.1667 83.5,26.8333 83.5,32.5C 82.2617,32.81 82.2617,33.31 83.5,34C 84.5,34.3333 85.5,34.6667 86.5,35C 77.479,35.3934 68.479,36.06 59.5,37C 56.3081,39.6924 52.9748,42.1924 49.5,44.5C 48.5344,42.604 48.2011,40.604 48.5,38.5C 44.1667,38.5 39.8333,38.5 35.5,38.5C 34.6708,33.547 34.3375,28.547 34.5,23.5C 36.0395,25.8383 36.7062,28.5049 36.5,31.5C 38.143,31.5198 39.4763,30.8532 40.5,29.5C 41.7639,24.0808 42.7639,18.7475 43.5,13.5C 43.5,19.5 43.5,25.5 43.5,31.5C 45.099,31.7678 46.4324,31.4345 47.5,30.5C 47.3354,27.4816 47.502,24.4816 48,21.5C 49.6995,20.5939 51.5328,20.2606 53.5,20.5C 53.5,23.8333 53.5,27.1667 53.5,30.5C 54.8333,30.5 56.1667,30.5 57.5,30.5C 57.6653,26.8183 57.4986,23.1516 57,19.5C 54.1737,17.6602 51.0071,16.9935 47.5,17.5C 47.5,16.1667 47.5,14.8333 47.5,13.5C 48.404,14.209 48.7373,15.209 48.5,16.5C 53.56,17.0983 58.56,17.0983 63.5,16.5C 58.6548,20.2474 58.3215,24.4141 62.5,29C 65.9283,29.7011 69.2617,29.3677 72.5,28C 73.9928,26.8438 73.8261,26.0104 72,25.5C 69.4791,26.6733 66.9791,26.6733 64.5,25.5C 67.1934,23.7298 70.1934,23.0632 73.5,23.5C 73.8342,20.812 73.1675,18.4786 71.5,16.5C 72.9643,17.4054 74.2976,17.4054 75.5,16.5C 75.3347,20.1817 75.5014,23.8484 76,27.5C 76.3826,28.056 76.8826,28.3893 77.5,28.5C 78.5,28.5 79.5,28.5 80.5,28.5C 80.8229,22.31 80.4896,16.31 79.5,10.5C 78.1667,10.5 76.8333,10.5 75.5,10.5C 74.5525,9.02211 73.2191,8.02211 71.5,7.5C 87.166,6.11914 102.833,4.78581 118.5,3.5 Z"/></g>
<g><path style="opacity:1" fill="#f4e6f2" d="M 95.5,15.5 C 99.0362,23.3313 96.3695,27.3313 87.5,27.5C 87.5,29.1667 87.5,30.8333 87.5,32.5C 86.1667,32.5 84.8333,32.5 83.5,32.5C 83.5,26.8333 83.5,21.1667 83.5,15.5C 87.5872,14.7986 91.5872,14.7986 95.5,15.5 Z"/></g>
<g><path style="opacity:1" fill="#f9ecf7" d="M 47.5,13.5 C 47.5,14.8333 47.5,16.1667 47.5,17.5C 51.0071,16.9935 54.1737,17.6602 57,19.5C 57.4986,23.1516 57.6653,26.8183 57.5,30.5C 56.1667,30.5 54.8333,30.5 53.5,30.5C 53.5,27.1667 53.5,23.8333 53.5,20.5C 51.5328,20.2606 49.6995,20.5939 48,21.5C 47.502,24.4816 47.3354,27.4816 47.5,30.5C 46.5,30.5 45.5,30.5 44.5,30.5C 44.5,24.8333 44.5,19.1667 44.5,13.5C 45.5,13.5 46.5,13.5 47.5,13.5 Z"/></g>
<g><path style="opacity:1" fill="#f7e6f1" d="M 63.5,16.5 C 66.1667,16.5 68.8333,16.5 71.5,16.5C 73.1675,18.4786 73.8342,20.812 73.5,23.5C 70.1934,23.0632 67.1934,23.7298 64.5,25.5C 66.9791,26.6733 69.4791,26.6733 72,25.5C 73.8261,26.0104 73.9928,26.8438 72.5,28C 69.2617,29.3677 65.9283,29.7011 62.5,29C 58.3215,24.4141 58.6548,20.2474 63.5,16.5 Z"/></g>
<g><path style="opacity:1" fill="#c63569" d="M 87.5,17.5 C 93.1581,16.6794 94.8248,18.846 92.5,24C 90.8659,24.4935 89.1992,24.6602 87.5,24.5C 87.5,22.1667 87.5,19.8333 87.5,17.5 Z"/></g>
<g><path style="opacity:1" fill="#b23760" d="M 64.5,19.5 C 66.288,19.2148 67.9547,19.5481 69.5,20.5C 68.6667,20.8333 67.8333,21.1667 67,21.5C 65.6244,21.3158 64.7911,20.6491 64.5,19.5 Z"/></g>
<g><path style="opacity:1" fill="#e3175c" d="M 95.5,15.5 C 91.2853,13.5636 86.6186,12.8969 81.5,13.5C 81.5,11.5 81.5,9.5 81.5,7.5C 84.5,7.5 87.5,7.5 90.5,7.5C 90.5,8.5 90.5,9.5 90.5,10.5C 94.1692,8.44612 96.8359,9.27945 98.5,13C 98.2517,14.7491 97.2517,15.5824 95.5,15.5 Z"/></g>
<g><path style="opacity:1" fill="#6c0f37" d="M 159.5,15.5 C 161.384,15.7118 162.717,16.7118 163.5,18.5C 164.333,17.5 165.167,16.5 166,15.5C 166.24,17.8516 167.073,19.8516 168.5,21.5C 169.765,25.4539 169.765,29.4539 168.5,33.5C 165.724,35.1298 162.724,35.7965 159.5,35.5C 159.5,37.1667 159.5,38.8333 159.5,40.5C 153.865,39.6764 148.365,38.343 143,36.5C 140.619,37.435 138.119,37.7683 135.5,37.5C 132.753,37.8134 130.086,37.48 127.5,36.5C 129.655,35.9986 131.322,34.9986 132.5,33.5C 136.257,33.9292 139.757,33.2625 143,31.5C 144.397,26.2919 144.897,20.9586 144.5,15.5C 145.117,15.6107 145.617,15.944 146,16.5C 149.735,12.9039 154.235,11.5706 159.5,12.5C 159.5,13.5 159.5,14.5 159.5,15.5 Z"/></g>
<g><path style="opacity:1" fill="#efdee9" d="M 159.5,15.5 C 162.922,22.6446 160.588,26.6446 152.5,27.5C 148.351,27.6874 146.017,25.6874 145.5,21.5C 147.95,14.7407 152.616,12.7407 159.5,15.5 Z"/></g>
<g><path style="opacity:1" fill="#651a35" d="M 151.5,17.5 C 156.328,17.3852 157.661,19.5519 155.5,24C 150.57,24.427 149.237,22.2604 151.5,17.5 Z"/></g>
</svg>
